<?xml version="1.0" encoding="UTF-8" standalone="no"?> <svg id="Layer_1" data-name="Layer 1" xmlns="http://www.w3.org/2000/svg" viewBox="0 0 128 128"><defs><style>.cls-1{fill:#3b4551;}.cls-2{fill:#2b77c0;}</style></defs><title>a</title><path class="cls-1" d="M123.14875,104.26274c-1.78623-6.55-5.06736-10.1397-11.6106-12.15868-5.96039-1.99842-24.34887-8.45925-29.66727-10.5274C78.2688,88.29423,72.98419,94.81583,64,100.90653c-8.98423-6.0907-14.26894-12.6123-17.871-19.32987-5.3184,2.06815-23.70688,8.529-29.66727,10.5274-6.54324,2.019-9.82437,5.60865-11.6106,12.15868-2.02079,7.41045-2.38222,15.31438-2.38222,22.95848H125.53106C125.53106,119.57712,125.16954,111.67319,123.14875,104.26274Zm-13.51538,9.63392H92.62278a2.83511,2.83511,0,0,1,0-5.67023h17.01059a2.83511,2.83511,0,0,1,0,5.67023Z"/><path class="cls-2" d="M74.97889,44.17491A1.8335,1.8335,0,0,0,76.81076,42.345V27.34752a1.83188,1.83188,0,0,0-3.66375,0v6.76013H70.16818c-.20467,0-.231,0-.231-.231V27.34752a1.82984,1.82984,0,1,0-3.65968,0v6.52911a3.76811,3.76811,0,0,0,3.8907,3.8907H73.147V42.345A1.8335,1.8335,0,0,0,74.97889,44.17491Z"/><path class="cls-2" d="M51.49877,41.0481a1.8311,1.8311,0,0,0,1.29285,3.12681h9.05a1.83088,1.83088,0,1,0,0-3.66176H57.2112L61.90446,35.82a6.03538,6.03538,0,0,0-8.53532-8.53532l-.93215.93414a1.83055,1.83055,0,1,0,2.58978,2.58779l.93215-.93215a2.43377,2.43377,0,0,1,3.35774,0,2.38,2.38,0,0,1,0,3.35774Z"/><path class="cls-1" d="M34.76258,44.72607l1.30571,6.306a5.40267,5.40267,0,0,0,5.87562,4.27323c1.42444,6.38014,3.59076,12.59709,7.41879,17.89411,2.81918,3.85773,7.84913,5.89047,14.51119,5.89047H64.141c6.66206,0,11.692-2.03274,14.5111-5.89047a37.64783,37.64783,0,0,0,4.05072-7.22589H77.8064a32.87018,32.87018,0,0,1-2.745,4.58476c-2.463,3.36816-7.28521,4.08033-10.90558,4.08033h-.28192c-3.62037,0-8.45743-.69732-10.90567-4.05063-2.99713-4.13965-5.11889-9.30319-6.69167-16.24716l-.8606-3.85773-3.932.40055a.9585.9585,0,0,1-1.05341-.75664l-1.06835-5.16354L44.407,43.92478,43.9619,39.889c-.32647-3.01207-.56384-5.96473-.69741-8.769-.178-4.15459.34124-6.89951,1.70636-8.90254,3.96161-5.87571,12.61194-7.58207,18.814-7.30015h.43026c6.20209-.29677,14.85243,1.42444,18.82888,7.30015,1.35027,2.003,1.86955,4.748,1.69151,8.90254-.11873,2.81908-.35609,5.68273-.69741,8.769L83.593,43.92478l5.05966,1.03865L87.58431,50.127a.97375.97375,0,0,1-1.06826.75664l-3.932-.40055-.8606,3.85773c-.20766.94963-.43026,1.8547-.66762,2.73015h4.58476c.16319-.59354.29677-1.17223.43026-1.76567A5.42141,5.42141,0,0,0,91.94656,51.032l1.29086-6.306a3.28483,3.28483,0,0,0-2.552-3.88744l-2.21078-.46c.32638-3.01207.5786-6.0389.71217-9.06583.178-4.02092-.14843-8.16067-2.46309-11.58814-4.80736-7.13687-14.526-9.65918-22.71632-9.25863-8.19028-.40055-17.909,2.12176-22.73117,9.25863-2.31466,3.42748-2.62619,7.56722-2.44815,11.58814q.20023,4.54038.71217,9.06583l-2.21078.46A3.30593,3.30593,0,0,0,34.76258,44.72607Z"/><path class="cls-2" d="M29.27284,33.33526a2.22566,2.22566,0,1,0,4.44647-.20775q-.04374-.79277-.07236-1.58845c-.17822-3.94413-.02753-9.76034,3.33266-14.72455C43.07983,7.76562,54.91221,4.89229,63.922,5.256l.08549.0029L64.093,5.256c9.02716-.36369,20.8436,2.50964,26.94382,11.55853,3.3428,4.957,3.50943,10.78187,3.3457,14.71731-.05941,1.21714-.13186,2.47921-.2188,3.75431l-.084,1.21135.97516.72594a8.55522,8.55522,0,0,1,3.2718,8.56783l-1.28814,6.2683a10.54342,10.54342,0,0,1-5.42064,7.23766H69.88173a6.30071,6.30071,0,1,0-.00045,4.45127H92.63645l.45063-.21155A14.96067,14.96067,0,0,0,101.397,52.96371l1.28959-6.27264a13.02294,13.02294,0,0,0-4.00788-12.2439c.058-.91576.10722-1.82427.15069-2.71539.19127-4.57733-.02608-11.36147-4.10207-17.40662C87.62587,3.79107,74.22859.44826,64.00747.80471c-10.2443-.3608-23.6184,2.9878-30.717,13.51755C29.19279,20.38046,28.99428,27.16459,29.2,31.71874Q29.229,32.52374,29.27284,33.33526Z"/></svg>